<svg width="750" height="551" viewBox="0 0 750 551" fill="none" xmlns="http://www.w3.org/2000/svg">
<path d="M350.837 436.18L362.685 430.879L347.845 381.548L330.357 389.372L350.837 436.18Z" fill="#FFB6B6"/>
<path d="M342.35 422.787L360.074 410.273L364.966 418.157L389.961 419.387C391.196 419.448 392.379 419.901 393.337 420.681C394.296 421.462 394.98 422.528 395.289 423.724C395.598 424.921 395.517 426.185 395.057 427.332C394.597 428.479 393.783 429.449 392.732 430.1L370.82 443.691L362.204 438.235L365.568 446.949L357.306 452.073L342.35 422.787Z" fill="#2F2E41"/>
<path d="M655.19 342.808C655.19 337.847 653.524 333.821 651.478 333.812H93.7069C91.6517 333.821 89.9945 337.847 89.9853 342.808V547.037C89.9854 547.498 89.814 547.942 89.5044 548.283C89.1949 548.624 88.7694 548.838 88.3108 548.883C86.8137 549.026 85.3167 549.16 83.8196 549.284C83.7826 549.284 83.7456 549.293 83.7085 549.293C82.8939 549.367 82.0792 549.423 81.2645 549.487H81.2552C80.8362 548.713 80.422 547.931 80.0126 547.143C79.8742 546.878 79.8018 546.583 79.8018 546.283V331.137C79.8018 329.767 79.8573 328.388 79.9499 327.027C80.082 325.158 80.3138 323.298 80.6442 321.455C82.2088 312.856 85.7452 307.034 89.7631 307.015H655.412C655.998 307.019 656.578 307.142 657.116 307.376C657.905 307.726 658.619 308.225 659.217 308.848C660.029 309.692 660.723 310.642 661.281 311.671C663.263 315.161 664.679 320.363 665.179 326.416C665.179 326.472 665.188 326.527 665.188 326.583C665.318 328.082 665.383 329.609 665.373 331.137L665.503 350.972L665.586 362.802L665.836 399.918L665.929 413.099L666.336 548.423C666.336 548.914 666.141 549.385 665.794 549.732C665.447 550.079 664.976 550.274 664.485 550.274H657.041C656.55 550.274 656.079 550.079 655.732 549.732C655.385 549.385 655.19 548.914 655.19 548.423V342.808Z" fill="#E6E6E6"/>
<path d="M503.626 214.199H443.525C442.675 214.201 441.86 214.539 441.26 215.141C440.659 215.743 440.322 216.559 440.323 217.409V312.333H506.836V217.409C506.836 216.987 506.753 216.57 506.592 216.18C506.431 215.791 506.194 215.437 505.896 215.139C505.598 214.841 505.244 214.604 504.855 214.443C504.465 214.282 504.047 214.199 503.626 214.199V214.199ZM473.778 268.134C471.898 268.125 470.098 267.375 468.769 266.046C467.44 264.717 466.69 262.918 466.681 261.039V250.09C466.683 248.209 467.432 246.407 468.762 245.078C470.093 243.749 471.897 243.002 473.778 243.002C475.658 243.002 477.462 243.749 478.793 245.078C480.124 246.407 480.872 248.209 480.874 250.09V261.039C480.866 262.918 480.115 264.717 478.786 266.046C477.457 267.375 475.657 268.125 473.778 268.134Z" fill="#2F2E41"/>
<path d="M440.117 309.297V318.455C440.118 318.93 440.307 319.384 440.643 319.72C440.978 320.056 441.433 320.245 441.908 320.245H505.252C505.726 320.243 506.18 320.054 506.515 319.718C506.851 319.383 507.04 318.929 507.042 318.455V309.297H440.117Z" fill="#3F3D56"/>
<path d="M362.899 82.008C362.207 83.749 361.142 85.3172 359.778 86.6021C358.415 87.8871 356.786 88.8574 355.007 89.4449C353.227 90.0324 351.341 90.2227 349.48 90.0025C347.62 89.7822 345.83 89.1567 344.237 88.17L259.401 147.26L257.059 123.712L340.473 69.6786C342.308 67.1132 345.021 65.31 348.097 64.6106C351.173 63.9113 354.399 64.3644 357.163 65.8842C359.927 67.4039 362.038 69.8847 363.095 72.8564C364.152 75.8281 364.082 79.0843 362.899 82.008V82.008Z" fill="#FFB6B6"/>
<path d="M172.955 119.265C172.955 119.265 163.769 132.836 178.183 144.845C192.598 156.855 251.024 154.466 260.453 154.362C269.881 154.259 313.141 109.516 313.141 109.516L312.858 83.6757L260.628 114.661L172.955 119.265Z" fill="#C3E5F0"/>
<path d="M167.755 209.365L168.681 226.952C168.681 226.952 165.948 242.53 168.195 245.892C170.426 249.237 231.674 254.213 231.674 254.213C231.674 254.213 229.754 227.985 233.218 209.013L167.755 209.365Z" fill="#FFB6B6"/>
<path d="M355.728 388.426L332.151 409.061L285.943 314.574C240.121 322.453 196.892 324.977 159.501 315.446C146.842 312.263 139.103 299.194 142.217 286.254C142.363 285.649 142.531 285.051 142.722 284.459C147.197 270.808 158.911 261.149 168.14 246.135L235.552 247.159L228.022 273.134L293.509 264.661C306.678 262.957 318.705 272.488 320.372 285.948C320.46 286.659 320.518 287.373 320.545 288.089L355.728 388.426Z" fill="#2F2E41"/>
<path d="M194.076 91.015C209.194 91.015 221.449 78.7618 221.449 63.6468C221.449 48.5318 209.194 36.2787 194.076 36.2787C178.958 36.2787 166.703 48.5318 166.703 63.6468C166.703 78.7618 178.958 91.015 194.076 91.015Z" fill="#FFB6B6"/>
<path d="M178.029 100.895L203.128 103.847C204.186 103.972 205.179 104.423 205.969 105.139C206.758 105.854 207.305 106.798 207.533 107.839L211.524 126.101L236.406 155.397C236.406 155.397 245.341 172.146 241.99 191.13C239.974 202.561 236.486 213.682 231.613 224.218C231.613 224.218 170.422 249.239 168.189 245.889C165.955 242.539 165.23 227.322 165.23 227.322L157.358 139.758C156.907 135.144 157.483 130.488 159.045 126.123C160.606 121.758 163.114 117.793 166.389 114.512C168.376 112.558 170.336 111.191 171.931 111.191C175.535 111.07 175.073 102.96 178.029 100.895Z" fill="#C3E5F0"/>
<path d="M231.884 472.868L243.531 478.572L271.57 435.368L254.379 426.95L231.884 472.868Z" fill="#FFB6B6"/>
<path d="M259.784 463.104L235.856 454.021L268.697 355.402C224.081 342.323 190.426 321.256 161.042 296.251C151.073 287.824 143.598 277.003 152.087 266.752C152.484 266.273 152.899 265.81 153.331 265.362C163.356 255.071 188.799 257.051 203.693 247.628L237.004 283.186L234.917 292.711L297.453 313.906C310.03 318.168 316.637 332.017 312.211 344.839C311.978 345.516 311.715 346.182 311.424 346.837L259.784 463.104Z" fill="#2F2E41"/>
<path d="M231.487 465.985L251.506 474.351L247.424 482.683L259.66 504.51C260.264 505.588 260.508 506.83 260.356 508.057C260.204 509.283 259.664 510.429 258.814 511.327C257.965 512.224 256.851 512.827 255.634 513.047C254.418 513.267 253.163 513.092 252.053 512.548L228.896 501.206L228.943 491.009L223.346 498.488L214.615 494.211L231.487 465.985Z" fill="#2F2E41"/>
<path d="M192.338 314.985C190.768 313.963 189.442 312.608 188.452 311.017C187.462 309.427 186.834 307.638 186.61 305.778C186.386 303.918 186.573 302.032 187.158 300.252C187.742 298.472 188.71 296.842 189.993 295.476L148.861 200.634L172.411 203.002L208.866 295.449C211.018 297.755 212.249 300.771 212.325 303.924C212.402 307.077 211.319 310.149 209.281 312.557C207.244 314.965 204.394 316.542 201.271 316.99C198.149 317.438 194.97 316.724 192.338 314.985V314.985Z" fill="#FFB6B6"/>
<path d="M193.425 121.46C193.425 121.46 181.939 109.77 167.311 121.519C152.683 133.268 143.456 190.999 141.69 200.26C139.924 209.52 175.223 260.776 175.223 260.776L200.612 265.615L180.577 208.293L193.425 121.46Z" fill="#C3E5F0"/>
<path d="M603.148 66.0594H346.241C344.033 66.063 341.918 66.9412 340.357 68.5016C338.796 70.0621 337.918 72.1775 337.914 74.3844V247.715C337.916 249.922 338.794 252.038 340.355 253.599C341.916 255.16 344.033 256.038 346.241 256.04H603.148C605.356 256.038 607.472 255.16 609.033 253.599C610.594 252.038 611.472 249.922 611.474 247.715V74.3844C611.471 72.1775 610.592 70.0621 609.032 68.5016C607.471 66.9412 605.355 66.063 603.148 66.0594V66.0594Z" fill="#3F3D56"/>
<path d="M601.003 72.0724H348.387C347.205 72.075 346.072 72.5461 345.237 73.3825C344.403 74.2189 343.934 75.3522 343.934 76.5338V245.568C343.936 246.748 344.405 247.88 345.24 248.714C346.075 249.549 347.206 250.018 348.387 250.02H601.003C602.183 250.018 603.315 249.549 604.149 248.714C604.984 247.88 605.454 246.748 605.456 245.568V76.5338C605.456 75.3522 604.987 74.2189 604.152 73.3825C603.317 72.5461 602.185 72.075 601.003 72.0724Z" fill="white"/>
<path d="M551.798 323.432H401.505C401.094 323.432 400.687 323.34 400.316 323.164C399.945 322.987 399.617 322.729 399.358 322.41C399.099 322.09 398.914 321.717 398.818 321.317C398.721 320.917 398.715 320.501 398.8 320.099L401.132 309.025C401.264 308.405 401.605 307.85 402.097 307.451C402.589 307.051 403.203 306.832 403.837 306.83H549.466C550.1 306.832 550.714 307.051 551.206 307.451C551.698 307.85 552.039 308.405 552.171 309.025L554.503 320.099C554.588 320.501 554.582 320.917 554.485 321.317C554.389 321.717 554.204 322.09 553.945 322.41C553.686 322.729 553.358 322.987 552.987 323.164C552.616 323.34 552.209 323.432 551.798 323.432H551.798Z" fill="#2F2E41"/>
<path d="M409.08 308.824H405.355C405.106 308.824 404.903 309.027 404.903 309.276V311.149C404.903 311.399 405.106 311.601 405.355 311.601H409.08C409.33 311.601 409.532 311.399 409.532 311.149V309.276C409.532 309.027 409.33 308.824 409.08 308.824Z" fill="#3F3D56"/>
<path d="M418.338 308.824H414.613C414.363 308.824 414.161 309.027 414.161 309.276V311.149C414.161 311.399 414.363 311.601 414.613 311.601H418.338C418.588 311.601 418.79 311.399 418.79 311.149V309.276C418.79 309.027 418.588 308.824 418.338 308.824Z" fill="#3F3D56"/>
<path d="M427.595 308.824H423.87C423.62 308.824 423.418 309.027 423.418 309.276V311.149C423.418 311.399 423.62 311.601 423.87 311.601H427.595C427.844 311.601 428.047 311.399 428.047 311.149V309.276C428.047 309.027 427.844 308.824 427.595 308.824Z" fill="#3F3D56"/>
<path d="M436.853 308.824H433.128C432.878 308.824 432.676 309.027 432.676 309.276V311.149C432.676 311.399 432.878 311.601 433.128 311.601H436.853C437.102 311.601 437.305 311.399 437.305 311.149V309.276C437.305 309.027 437.102 308.824 436.853 308.824Z" fill="#3F3D56"/>
<path d="M446.111 308.824H442.386C442.136 308.824 441.934 309.027 441.934 309.276V311.149C441.934 311.399 442.136 311.601 442.386 311.601H446.111C446.36 311.601 446.562 311.399 446.562 311.149V309.276C446.562 309.027 446.36 308.824 446.111 308.824Z" fill="#3F3D56"/>
<path d="M455.368 308.824H451.643C451.394 308.824 451.191 309.027 451.191 309.276V311.149C451.191 311.399 451.394 311.601 451.643 311.601H455.368C455.618 311.601 455.82 311.399 455.82 311.149V309.276C455.82 309.027 455.618 308.824 455.368 308.824Z" fill="#3F3D56"/>
<path d="M464.626 308.824H460.901C460.652 308.824 460.449 309.027 460.449 309.276V311.149C460.449 311.399 460.652 311.601 460.901 311.601H464.626C464.876 311.601 465.078 311.399 465.078 311.149V309.276C465.078 309.027 464.876 308.824 464.626 308.824Z" fill="#3F3D56"/>
<path d="M473.884 308.824H470.159C469.909 308.824 469.707 309.027 469.707 309.276V311.149C469.707 311.399 469.909 311.601 470.159 311.601H473.884C474.134 311.601 474.336 311.399 474.336 311.149V309.276C474.336 309.027 474.134 308.824 473.884 308.824Z" fill="#3F3D56"/>
<path d="M483.142 308.824H479.417C479.167 308.824 478.965 309.027 478.965 309.276V311.149C478.965 311.399 479.167 311.601 479.417 311.601H483.142C483.391 311.601 483.594 311.399 483.594 311.149V309.276C483.594 309.027 483.391 308.824 483.142 308.824Z" fill="#3F3D56"/>
<path d="M492.4 308.824H488.675C488.425 308.824 488.223 309.027 488.223 309.276V311.149C488.223 311.399 488.425 311.601 488.675 311.601H492.4C492.649 311.601 492.852 311.399 492.852 311.149V309.276C492.852 309.027 492.649 308.824 492.4 308.824Z" fill="#3F3D56"/>
<path d="M501.657 308.824H497.932C497.683 308.824 497.48 309.027 497.48 309.276V311.149C497.48 311.399 497.683 311.601 497.932 311.601H501.657C501.907 311.601 502.109 311.399 502.109 311.149V309.276C502.109 309.027 501.907 308.824 501.657 308.824Z" fill="#3F3D56"/>
<path d="M510.915 308.824H507.19C506.941 308.824 506.738 309.027 506.738 309.276V311.149C506.738 311.399 506.941 311.601 507.19 311.601H510.915C511.165 311.601 511.367 311.399 511.367 311.149V309.276C511.367 309.027 511.165 308.824 510.915 308.824Z" fill="#3F3D56"/>
<path d="M520.173 308.824H516.448C516.198 308.824 515.996 309.027 515.996 309.276V311.149C515.996 311.399 516.198 311.601 516.448 311.601H520.173C520.423 311.601 520.625 311.399 520.625 311.149V309.276C520.625 309.027 520.423 308.824 520.173 308.824Z" fill="#3F3D56"/>
<path d="M529.431 308.824H525.706C525.456 308.824 525.254 309.027 525.254 309.276V311.149C525.254 311.399 525.456 311.601 525.706 311.601H529.431C529.68 311.601 529.883 311.399 529.883 311.149V309.276C529.883 309.027 529.68 308.824 529.431 308.824Z" fill="#3F3D56"/>
<path d="M538.689 308.824H534.964C534.714 308.824 534.512 309.027 534.512 309.276V311.149C534.512 311.399 534.714 311.601 534.964 311.601H538.689C538.938 311.601 539.141 311.399 539.141 311.149V309.276C539.141 309.027 538.938 308.824 538.689 308.824Z" fill="#3F3D56"/>
<path d="M547.946 308.824H544.221C543.972 308.824 543.77 309.027 543.77 309.276V311.149C543.77 311.399 543.972 311.601 544.221 311.601H547.946C548.196 311.601 548.398 311.399 548.398 311.149V309.276C548.398 309.027 548.196 308.824 547.946 308.824Z" fill="#3F3D56"/>
<path d="M408.971 313.452H405.246C404.996 313.452 404.794 313.655 404.794 313.904V315.777C404.794 316.027 404.996 316.229 405.246 316.229H408.971C409.22 316.229 409.423 316.027 409.423 315.777V313.904C409.423 313.655 409.22 313.452 408.971 313.452Z" fill="#3F3D56"/>
<path d="M418.229 313.452H414.504C414.254 313.452 414.052 313.655 414.052 313.904V315.777C414.052 316.027 414.254 316.229 414.504 316.229H418.229C418.478 316.229 418.681 316.027 418.681 315.777V313.904C418.681 313.655 418.478 313.452 418.229 313.452Z" fill="#3F3D56"/>
<path d="M427.487 313.452H423.762C423.512 313.452 423.31 313.655 423.31 313.904V315.777C423.31 316.027 423.512 316.229 423.762 316.229H427.487C427.736 316.229 427.938 316.027 427.938 315.777V313.904C427.938 313.655 427.736 313.452 427.487 313.452Z" fill="#3F3D56"/>
<path d="M436.744 313.452H433.019C432.77 313.452 432.567 313.655 432.567 313.904V315.777C432.567 316.027 432.77 316.229 433.019 316.229H436.744C436.994 316.229 437.196 316.027 437.196 315.777V313.904C437.196 313.655 436.994 313.452 436.744 313.452Z" fill="#3F3D56"/>
<path d="M446.002 313.452H442.277C442.028 313.452 441.825 313.655 441.825 313.904V315.777C441.825 316.027 442.028 316.229 442.277 316.229H446.002C446.252 316.229 446.454 316.027 446.454 315.777V313.904C446.454 313.655 446.252 313.452 446.002 313.452Z" fill="#3F3D56"/>
<path d="M455.259 313.452H451.534C451.284 313.452 451.082 313.655 451.082 313.904V315.777C451.082 316.027 451.284 316.229 451.534 316.229H455.259C455.509 316.229 455.711 316.027 455.711 315.777V313.904C455.711 313.655 455.509 313.452 455.259 313.452Z" fill="#3F3D56"/>
<path d="M464.517 313.452H460.792C460.542 313.452 460.34 313.655 460.34 313.904V315.777C460.34 316.027 460.542 316.229 460.792 316.229H464.517C464.766 316.229 464.969 316.027 464.969 315.777V313.904C464.969 313.655 464.766 313.452 464.517 313.452Z" fill="#3F3D56"/>
<path d="M473.775 313.452H470.05C469.8 313.452 469.598 313.655 469.598 313.904V315.777C469.598 316.027 469.8 316.229 470.05 316.229H473.775C474.024 316.229 474.227 316.027 474.227 315.777V313.904C474.227 313.655 474.024 313.452 473.775 313.452Z" fill="#3F3D56"/>
<path d="M483.032 313.452H479.307C479.058 313.452 478.855 313.655 478.855 313.904V315.777C478.855 316.027 479.058 316.229 479.307 316.229H483.032C483.282 316.229 483.484 316.027 483.484 315.777V313.904C483.484 313.655 483.282 313.452 483.032 313.452Z" fill="#3F3D56"/>
<path d="M492.29 313.452H488.565C488.316 313.452 488.113 313.655 488.113 313.904V315.777C488.113 316.027 488.316 316.229 488.565 316.229H492.29C492.54 316.229 492.742 316.027 492.742 315.777V313.904C492.742 313.655 492.54 313.452 492.29 313.452Z" fill="#3F3D56"/>
<path d="M501.548 313.452H497.823C497.573 313.452 497.371 313.655 497.371 313.904V315.777C497.371 316.027 497.573 316.229 497.823 316.229H501.548C501.798 316.229 502 316.027 502 315.777V313.904C502 313.655 501.798 313.452 501.548 313.452Z" fill="#3F3D56"/>
<path d="M510.806 313.452H507.081C506.831 313.452 506.629 313.655 506.629 313.904V315.777C506.629 316.027 506.831 316.229 507.081 316.229H510.806C511.055 316.229 511.258 316.027 511.258 315.777V313.904C511.258 313.655 511.055 313.452 510.806 313.452Z" fill="#3F3D56"/>
<path d="M520.064 313.452H516.339C516.089 313.452 515.887 313.655 515.887 313.904V315.777C515.887 316.027 516.089 316.229 516.339 316.229H520.064C520.313 316.229 520.516 316.027 520.516 315.777V313.904C520.516 313.655 520.313 313.452 520.064 313.452Z" fill="#3F3D56"/>
<path d="M529.321 313.452H525.596C525.347 313.452 525.145 313.655 525.145 313.904V315.777C525.145 316.027 525.347 316.229 525.596 316.229H529.321C529.571 316.229 529.773 316.027 529.773 315.777V313.904C529.773 313.655 529.571 313.452 529.321 313.452Z" fill="#3F3D56"/>
<path d="M538.579 313.452H534.854C534.605 313.452 534.402 313.655 534.402 313.904V315.777C534.402 316.027 534.605 316.229 534.854 316.229H538.579C538.829 316.229 539.031 316.027 539.031 315.777V313.904C539.031 313.655 538.829 313.452 538.579 313.452Z" fill="#3F3D56"/>
<path d="M547.837 313.452H544.112C543.862 313.452 543.66 313.655 543.66 313.904V315.777C543.66 316.027 543.862 316.229 544.112 316.229H547.837C548.087 316.229 548.289 316.027 548.289 315.777V313.904C548.289 313.655 548.087 313.452 547.837 313.452Z" fill="#3F3D56"/>
<path d="M485.81 319.006H449.682C449.433 319.006 449.23 319.208 449.23 319.458V321.331C449.23 321.58 449.433 321.783 449.682 321.783H485.81C486.059 321.783 486.262 321.58 486.262 321.331V319.458C486.262 319.208 486.059 319.006 485.81 319.006Z" fill="#3F3D56"/>
<path d="M583.605 534.689L576.467 523.221L575.042 529.774C574.792 530.922 574.542 532.088 574.31 533.245C572.283 531.514 570.126 529.913 568.015 528.376C561.535 523.674 555.057 518.966 548.583 514.251L550.61 526.007C551.86 533.245 553.166 540.631 556.258 547.249C556.6 547.999 556.971 548.74 557.369 549.462H587.494C587.736 548.791 587.904 548.096 587.993 547.388C588.001 547.342 588.004 547.296 588.003 547.249C588.475 542.76 585.994 538.53 583.605 534.689Z" fill="#F0F0F0"/>
<path d="M176.264 534.689L169.127 523.221L167.701 529.774C167.451 530.922 167.201 532.088 166.97 533.245C164.942 531.514 162.785 529.913 160.674 528.376C154.194 523.674 147.717 518.966 141.242 514.251L143.27 526.007C144.519 533.245 145.825 540.631 148.917 547.249C149.26 547.999 149.63 548.74 150.028 549.462H180.153C180.395 548.791 180.563 548.096 180.653 547.388C180.66 547.342 180.663 547.296 180.662 547.249C181.134 542.76 178.653 538.53 176.264 534.689Z" fill="#F0F0F0"/>
<path d="M748.894 550.716L493.612 551C493.32 550.999 493.04 550.883 492.834 550.676C492.628 550.47 492.513 550.19 492.513 549.898C492.513 549.606 492.628 549.326 492.834 549.12C493.04 548.913 493.32 548.797 493.612 548.796L748.894 548.511C749.186 548.512 749.466 548.629 749.672 548.835C749.878 549.042 749.994 549.322 749.994 549.614C749.994 549.905 749.878 550.185 749.672 550.392C749.466 550.598 749.186 550.715 748.894 550.716V550.716Z" fill="#CACACA"/>
<path d="M256.382 550.716L1.09912 551C0.807322 550.999 0.527772 550.883 0.321739 550.676C0.115706 550.47 0 550.19 0 549.898C0 549.606 0.115706 549.326 0.321739 549.12C0.527772 548.913 0.807322 548.797 1.09912 548.796L256.382 548.511C256.674 548.512 256.953 548.629 257.159 548.835C257.365 549.042 257.481 549.322 257.481 549.614C257.481 549.905 257.365 550.185 257.159 550.392C256.953 550.598 256.674 550.715 256.382 550.716V550.716Z" fill="#CACACA"/>
<path d="M165.129 39.2504C160.713 40.5648 156.593 36.8716 153.519 33.3728L154.612 34.6687C147.382 39.7595 143.058 48.0529 140.253 56.4482C137.448 64.8342 135.883 73.6182 132.717 81.8839C129.551 90.1403 124.441 98.1283 116.618 102.247C106.138 107.764 93.2977 105.255 82.1513 101.275C82.0032 101.22 81.8643 101.174 81.7162 101.118C86.2307 92.6868 88.9954 83.4308 89.8445 73.9051C85.2592 82.8556 78.6463 90.6114 70.5329 96.5547C63.2497 93.2446 56.2465 89.3506 49.5918 84.9106C45.287 82.032 40.7506 78.311 40.2507 73.1554C39.7415 68.0368 43.565 63.3625 48.0735 60.9004C52.5821 58.4383 57.7664 57.6052 62.6915 56.1242C67.6074 54.6525 72.6251 52.2367 75.208 47.7938C81.1608 37.5751 71.1439 23.1634 77.5317 13.2038C80.6794 8.30738 86.7895 6.34508 92.4552 4.98444C101.103 2.91631 109.881 1.43505 118.729 0.550792C126.496 -0.226718 134.522 -0.513654 141.91 1.98549C149.298 4.48462 156 10.2882 157.584 17.9337C161.898 20.2014 166.462 22.7098 168.776 27.0139C171.091 31.3087 169.804 37.862 165.129 39.2504Z" fill="#2F2E41"/>
<path d="M158.537 37.5285C154.308 42.8246 152.006 48.5522 152.006 51.9822C143.222 68.0342 155.784 81.8222 171.839 90.6047C178.243 94.1261 185.637 95.4149 192.855 94.2678L193.526 91.4011L194.436 93.9834C194.436 93.9834 204.889 128.502 208.337 130.527C207.029 124.384 205.53 95.9402 204.802 89.9449C203.793 81.7849 207.309 69.6368 209.844 62.2492C211.417 57.6961 212.223 52.9141 212.232 48.0974V47.8868L214.701 55.816L223.69 51.9822C222.018 42.392 223.69 31.5049 203.641 32.4491C192.798 24.993 183.249 23.8572 175.405 25.972C174.393 24.4072 168.556 27.3379 166.869 26.514" fill="#2F2E41"/>
<path d="M605.455 76.5338V245.568C605.453 246.748 604.983 247.88 604.149 248.714C603.314 249.549 602.183 250.018 601.002 250.02H511.924C502.07 240.883 493.985 230.007 488.076 217.939C487.687 217.161 487.317 216.375 486.965 215.578C481.581 203.897 478.321 191.351 477.337 178.526C477.272 177.74 477.217 176.953 477.18 176.157C477.06 174.121 477.004 172.056 477.004 169.983C476.986 156.194 479.591 142.527 484.679 129.71C484.984 128.914 485.308 128.127 485.641 127.34C495.881 103.286 514.383 83.6845 537.809 72.0724H601.002C602.184 72.075 603.317 72.5461 604.151 73.3825C604.986 74.2189 605.455 75.3522 605.455 76.5338V76.5338Z" fill="#C3E5F0"/>
<path d="M588.304 95.3615H351.931C351.686 95.3562 351.452 95.2548 351.28 95.0791C351.108 94.9034 351.012 94.6675 351.012 94.4217C351.012 94.176 351.108 93.94 351.28 93.7644C351.452 93.5887 351.686 93.4873 351.931 93.4819H588.304C588.549 93.4873 588.783 93.5887 588.955 93.7644C589.127 93.94 589.223 94.176 589.223 94.4217C589.223 94.6675 589.127 94.9034 588.955 95.0791C588.783 95.2548 588.549 95.3562 588.304 95.3615Z" fill="#CACACA"/>
<path d="M368.022 88.6834C371.065 88.6834 373.531 86.1625 373.531 83.0529C373.531 79.9432 371.065 77.4224 368.022 77.4224C364.98 77.4224 362.514 79.9432 362.514 83.0529C362.514 86.1625 364.98 88.6834 368.022 88.6834Z" fill="#3F3D56"/>
<path d="M387.052 88.6834C390.094 88.6834 392.561 86.1625 392.561 83.0529C392.561 79.9432 390.094 77.4224 387.052 77.4224C384.009 77.4224 381.543 79.9432 381.543 83.0529C381.543 86.1625 384.009 88.6834 387.052 88.6834Z" fill="#3F3D56"/>
<path d="M406.083 88.6834C409.125 88.6834 411.592 86.1625 411.592 83.0529C411.592 79.9432 409.125 77.4224 406.083 77.4224C403.041 77.4224 400.574 79.9432 400.574 83.0529C400.574 86.1625 403.041 88.6834 406.083 88.6834Z" fill="#3F3D56"/>
<path d="M576.846 78.818H563.328C563.06 78.8233 562.805 78.9334 562.617 79.1248C562.429 79.3161 562.324 79.5734 562.324 79.8414C562.324 80.1094 562.429 80.3666 562.617 80.558C562.805 80.7493 563.06 80.8595 563.328 80.8648H576.846C577.114 80.8595 577.369 80.7493 577.557 80.558C577.744 80.3666 577.849 80.1094 577.849 79.8414C577.849 79.5734 577.744 79.3161 577.557 79.1248C577.369 78.9334 577.114 78.8233 576.846 78.818V78.818Z" fill="#3F3D56"/>
<path d="M576.846 82.6594H563.328C563.06 82.6647 562.805 82.7749 562.617 82.9662C562.429 83.1575 562.324 83.4148 562.324 83.6828C562.324 83.9508 562.429 84.2081 562.617 84.3994C562.805 84.5907 563.06 84.7009 563.328 84.7062H576.846C577.114 84.7009 577.369 84.5907 577.557 84.3994C577.744 84.2081 577.849 83.9508 577.849 83.6828C577.849 83.4148 577.744 83.1575 577.557 82.9662C577.369 82.7749 577.114 82.6647 576.846 82.6594V82.6594Z" fill="#3F3D56"/>
<path d="M576.846 86.4958H563.328C563.06 86.5011 562.805 86.6113 562.617 86.8026C562.429 86.994 562.324 87.2512 562.324 87.5192C562.324 87.7872 562.429 88.0445 562.617 88.2358C562.805 88.4272 563.06 88.5373 563.328 88.5426H576.846C577.114 88.5373 577.369 88.4272 577.557 88.2358C577.744 88.0445 577.849 87.7872 577.849 87.5192C577.849 87.2512 577.744 86.994 577.557 86.8026C577.369 86.6113 577.114 86.5011 576.846 86.4958V86.4958Z" fill="#3F3D56"/>
<path d="M422.547 150.267H393.011C390.793 150.267 388.994 152.065 388.994 154.283V154.283C388.994 156.501 390.793 158.299 393.011 158.299H422.547C424.766 158.299 426.564 156.501 426.564 154.283C426.564 152.065 424.766 150.267 422.547 150.267Z" fill="#C3E5F0"/>
<path d="M441.628 166.331H373.931C371.713 166.331 369.914 168.129 369.914 170.347C369.914 172.566 371.713 174.364 373.931 174.364H441.628C443.846 174.364 445.645 172.566 445.645 170.347C445.645 168.129 443.846 166.331 441.628 166.331Z" fill="#E6E6E6"/>
<path d="M441.628 182.396H373.931C371.713 182.396 369.914 184.194 369.914 186.412V186.412C369.914 188.63 371.713 190.428 373.931 190.428H441.628C443.846 190.428 445.645 188.63 445.645 186.412C445.645 184.194 443.846 182.396 441.628 182.396Z" fill="#E6E6E6"/>
<path d="M376.095 240.329C376.101 243.638 375.511 246.921 374.355 250.02H348.387C347.206 250.018 346.075 249.549 345.24 248.714C344.405 247.88 343.936 246.748 343.934 245.568V212.913C345.385 212.678 346.852 212.561 348.322 212.561C351.969 212.561 355.581 213.279 358.95 214.674C362.32 216.07 365.382 218.115 367.961 220.694C370.54 223.272 372.586 226.334 373.981 229.703C375.377 233.072 376.095 236.683 376.095 240.329Z" fill="#C3E5F0"/>
<path opacity="0.2" d="M605.687 129.71V127.34H565.962V99.8777H563.601V127.34H518.071V99.8777H515.71V127.34H485.641C485.308 128.127 484.984 128.914 484.678 129.71H515.71V176.157H477.18C477.217 176.953 477.272 177.74 477.337 178.527H515.71V215.579H486.965C487.317 216.375 487.687 217.161 488.076 217.939H515.71V249.086H518.071V217.939H563.601V249.086H565.962V217.939H605.687V215.579H565.962V178.527H605.687V176.157H565.962V129.71H605.687ZM563.601 215.579H518.071V178.527H563.601V215.579ZM563.601 176.157H518.071V129.71H563.601V176.157Z" fill="black"/>
<path d="M573.703 232.484C573.196 232.507 572.695 232.374 572.266 232.103C571.838 231.831 571.503 231.435 571.307 230.967C571.111 230.499 571.064 229.982 571.172 229.487C571.28 228.991 571.538 228.541 571.91 228.196L572.08 227.523C572.057 227.469 572.035 227.415 572.012 227.361C571.502 226.155 570.647 225.128 569.554 224.407C568.461 223.685 567.179 223.303 565.87 223.308C564.56 223.313 563.282 223.705 562.194 224.434C561.107 225.163 560.259 226.197 559.758 227.406C557.753 232.233 555.201 237.068 554.573 242.171C554.296 244.427 554.413 246.713 554.918 248.929C550.21 238.662 547.766 227.503 547.75 216.208C547.749 213.374 547.907 210.541 548.222 207.725C548.482 205.416 548.844 203.123 549.306 200.847C551.829 188.496 557.247 176.92 565.114 167.07C568.921 164.992 572 161.798 573.936 157.918C574.637 156.523 575.133 155.034 575.408 153.497C574.978 153.553 574.542 153.588 574.112 153.616C573.978 153.623 573.838 153.63 573.704 153.637L573.653 153.64C573.181 153.661 572.713 153.545 572.305 153.307C571.898 153.068 571.567 152.717 571.355 152.295C571.142 151.873 571.056 151.399 571.107 150.929C571.157 150.459 571.343 150.014 571.64 149.647C571.826 149.419 572.011 149.191 572.197 148.963C572.479 148.611 572.767 148.266 573.049 147.914C573.081 147.881 573.112 147.845 573.141 147.808C573.464 147.407 573.788 147.013 574.112 146.612C573.521 145.694 572.726 144.926 571.789 144.366C568.543 142.465 564.064 143.782 561.72 146.717C559.368 149.653 558.924 153.771 559.741 157.439C560.544 160.56 561.873 163.521 563.67 166.197C563.494 166.422 563.311 166.64 563.135 166.865C559.917 171.002 557.113 175.445 554.762 180.129C555.333 174.881 554.651 169.573 552.77 164.641C550.865 160.044 547.293 156.173 544.147 152.199C540.368 147.426 532.62 149.509 531.955 155.56C531.948 155.618 531.942 155.677 531.936 155.735C532.403 155.999 532.86 156.279 533.308 156.574C533.87 156.95 534.306 157.487 534.558 158.114C534.81 158.741 534.866 159.43 534.72 160.09C534.574 160.75 534.231 161.35 533.738 161.813C533.245 162.275 532.623 162.577 531.955 162.68L531.886 162.691C532.053 164.374 532.347 166.043 532.767 167.682C533.982 172.258 536.13 176.533 539.075 180.24C542.021 183.947 545.7 187.006 549.884 189.224C550.158 189.365 550.426 189.506 550.7 189.639C548.338 196.332 546.857 203.304 546.293 210.379C545.973 214.553 545.992 218.746 546.349 222.917L546.328 222.769C545.427 218.131 542.952 213.946 539.322 210.921C533.93 206.493 526.313 204.862 520.497 201.303C519.879 200.906 519.16 200.694 518.425 200.692C517.691 200.691 516.971 200.899 516.351 201.293C515.731 201.687 515.236 202.249 514.926 202.915C514.615 203.581 514.501 204.321 514.598 205.049C514.606 205.101 514.614 205.153 514.622 205.205C515.489 205.558 516.333 205.964 517.149 206.422C517.617 206.686 518.074 206.966 518.521 207.262C519.084 207.637 519.519 208.174 519.771 208.801C520.023 209.428 520.08 210.117 519.934 210.777C519.787 211.437 519.445 212.037 518.952 212.5C518.458 212.962 517.837 213.264 517.169 213.367L517.1 213.378C517.051 213.385 517.008 213.392 516.959 213.399C518.441 216.936 520.52 220.191 523.106 223.022C526.301 226.45 530.162 229.189 534.453 231.071C538.744 232.953 543.374 233.94 548.06 233.969H548.067C549.339 239.496 551.182 244.875 553.566 250.02H573.211C573.281 249.802 573.345 249.577 573.408 249.358C571.59 249.473 569.764 249.364 567.972 249.035C569.43 247.247 570.887 245.444 572.345 243.656C572.377 243.623 572.408 243.588 572.436 243.551C573.176 242.635 573.922 241.727 574.661 240.812L574.662 240.811C574.701 238.006 574.379 235.207 573.704 232.484L573.703 232.484ZM551.207 188.238L551.218 188.224L551.207 188.253V188.238ZM546.856 227.458L546.687 227.077C546.694 226.803 546.694 226.528 546.687 226.247C546.687 226.169 546.673 226.092 546.673 226.014C546.736 226.5 546.793 226.986 546.863 227.472L546.856 227.458Z" fill="#2F2E41"/>
</svg>
